<?xml version="1.0" encoding="UTF-8" standalone="no"?>
<!-- Created with Inkscape (http://www.inkscape.org/) -->
<svg xmlns:svg="http://www.w3.org/2000/svg" xmlns="http://www.w3.org/2000/svg" xmlns:xlink="http://www.w3.org/1999/xlink" id="svg2144" viewBox="0 0 468 303" height="378.75000" width="585.00000" y="0.0000000" x="0.0000000" version="1.0">
  <defs id="defs2169">
    <linearGradient id="linearGradient2950">
      <stop id="stop2952" offset="0.0000000" style="stop-color:#000000;stop-opacity:1.0000000;"/>
      <stop id="stop2954" offset="1.0000000" style="stop-color:#000000;stop-opacity:0.48913044;"/>
    </linearGradient>
    <linearGradient gradientTransform="matrix(4.412490,0.000000,0.000000,0.226629,-4.355330,7.522843)" gradientUnits="userSpaceOnUse" xlink:href="#linearGradient2950" id="linearGradient2956" y2="457.98428" x2="95.277313" y1="457.98428" x1="35.912292"/>
    <linearGradient gradientTransform="matrix(4.412490,0.000000,0.000000,0.226629,-4.355330,7.522843)" gradientUnits="userSpaceOnUse" xlink:href="#linearGradient2950" id="linearGradient1329" y2="457.98428" x2="95.277313" y1="457.98428" x1="35.912292"/>
    <linearGradient gradientTransform="matrix(4.458720,0.000000,0.000000,0.229003,-4.641318,4.718886)" gradientUnits="userSpaceOnUse" xlink:href="#linearGradient2950" id="linearGradient1339" y2="457.98428" x2="95.277313" y1="457.98428" x1="35.912292"/>
  </defs>
  <g id="g1347">
    <path id="path2150" style="fill:#ff0000;fill-opacity:1.0000000;stroke:none" d="M 112.34307,16.911165 C 110.69227,18.561964 110.69227,69.251207 112.34307,70.902006 C 113.02281,71.581747 115.54757,72.067276 118.16942,72.067276 C 121.76233,72.067276 123.02471,71.678853 123.80156,70.222265 C 125.16104,67.697514 125.16104,20.115657 123.80156,17.590906 C 123.02471,16.134319 121.76233,15.745896 118.16942,15.745896 C 115.54757,15.745896 113.02281,16.231425 112.34307,16.911165 z "/>
    <path id="path2152" style="fill:#00be00;fill-opacity:1.0000000;stroke:none" d="M 47.972884,42.911762 C 45.351026,45.533619 44.768391,46.795995 45.253921,48.446794 C 45.642344,49.709170 53.605022,58.448694 63.024286,67.867960 C 77.881478,82.822258 80.600441,85.152797 83.222299,85.152797 C 87.009426,85.152797 90.408130,81.656988 90.408130,77.772754 C 90.408130,75.345109 87.689167,72.237722 72.637763,57.186319 C 62.830075,47.475736 54.090551,39.513058 53.119493,39.513058 C 52.148434,39.513058 49.817895,41.066751 47.972884,42.911762 z "/>
    <path id="path2156" style="fill:#0000ff;fill-opacity:1.0000000;stroke:none" d="M 24.495934,105.05928 C 22.650923,106.80719 22.359606,114.18723 24.107511,115.93513 C 25.758310,117.58593 76.447553,117.58593 78.098352,115.93513 C 79.652045,114.38144 79.652045,106.22455 78.098352,104.67087 C 77.224399,103.79692 69.941462,103.50560 51.491355,103.50560 C 29.642543,103.50560 25.758310,103.69981 24.495934,105.05928 z "/>
    <path id="path2158" style="fill:url(#linearGradient1339);fill-opacity:1.0000000;stroke:none" d="M 157.80619,103.96689 C 154.70664,105.52058 154.70664,113.67748 157.80619,115.23117 C 159.54967,116.10512 191.70730,116.39644 290.69858,116.39644 C 409.06191,116.39644 417.47383,117.32039 420.10399,114.84275 C 422.44015,112.87479 422.94254,110.95851 422.94254,108.04534 C 422.26531,105.42224 421.80688,104.40366 418.94167,102.80162 L 289.53625,102.80162 C 191.51357,102.80162 159.54967,103.09294 157.80619,103.96689 z "/>
    <path id="path2160" style="fill:#000000;stroke:none" d="M 175.22987,146.07742 C 156.00292,148.79638 142.50521,166.37254 142.50521,188.70688 C 142.50521,216.09072 163.09165,235.41478 188.04784,231.33634 C 195.52499,230.17106 200.57450,227.74342 206.20663,222.49971 L 210.47929,218.51837 L 210.47929,222.11129 C 210.47929,228.03473 211.83878,229.49133 217.17959,229.49133 C 225.43359,229.49133 225.04517,231.33634 225.04517,187.93003 C 225.04517,144.81504 225.43359,146.95137 217.27670,146.95137 C 211.54746,146.95137 210.47929,148.31086 210.47929,155.30247 L 210.47929,159.96356 L 205.91532,155.49668 C 197.75843,147.53400 187.56232,144.42662 175.22987,146.07742 z M 193.19446,159.76934 C 198.72949,161.42014 205.91532,168.21755 208.63428,174.33522 C 210.38219,178.41366 210.86772,181.13263 210.86772,187.73582 C 210.77061,199.19431 208.63428,205.31198 202.32240,211.52674 C 196.59316,217.15889 192.32051,218.80969 183.19255,218.80969 C 167.17010,218.80969 156.87687,206.76856 156.87687,188.02714 C 156.87687,179.19051 159.11031,172.68442 164.35403,166.46964 C 170.18038,159.57513 182.80413,156.66195 193.19446,159.76934 z "/>
    <path id="path2162" style="fill:#000000;stroke:none" d="M 278.64759,146.17453 C 271.85018,147.24269 264.85856,150.93271 260.00327,155.88511 L 256.11903,159.96356 L 256.11903,154.62273 C 256.11903,151.70956 255.63351,148.79638 254.95376,148.11664 C 254.27402,147.43690 251.74927,146.95137 249.32162,146.95137 C 240.97053,146.95137 241.55316,142.48451 241.55316,210.65279 C 241.55316,278.72398 241.16473,275.13107 248.83610,275.13107 C 256.21614,275.13107 256.11903,275.71370 256.11903,244.73694 L 256.11903,217.35309 L 258.93510,220.84891 C 265.34408,228.61738 279.23022,233.08424 291.56265,231.33634 C 313.60569,228.22895 327.20050,207.54541 324.09311,182.00658 C 323.12205,174.23811 318.46098,163.45936 313.99410,158.40986 C 305.06037,148.40795 292.24240,143.94109 278.64759,146.17453 z M 297.19480,161.80857 C 301.75877,164.52753 306.12853,169.96545 308.65329,176.08312 C 310.69251,181.03552 310.40119,196.76667 308.26486,201.81617 C 305.35168,208.32226 301.66167,212.98334 297.00059,215.70230 C 293.50478,217.74152 291.17424,218.32416 284.37683,218.61547 C 276.70547,219.00390 275.63730,218.80969 270.68491,216.18783 C 261.65406,211.52674 256.11903,200.74801 256.11903,188.22134 C 256.11903,175.79180 261.55695,165.78991 270.87912,161.03172 C 275.54020,158.70118 276.80258,158.50696 284.37683,158.79829 C 291.27134,159.08960 293.40767,159.67224 297.19480,161.80857 z "/>
    <path id="path2164" style="fill:#000000;stroke:none" d="M 376.43315,145.98031 C 369.44153,147.14559 362.83834,150.54428 357.88594,155.49668 L 353.22486,159.96356 L 353.22486,154.62273 C 353.22486,151.70956 352.73933,148.79638 352.05959,148.11664 C 350.50590,146.56294 342.34901,146.56294 340.79532,148.11664 C 339.92137,148.99060 339.63005,164.33331 339.63005,211.23543 C 339.63005,271.44105 339.72715,273.18895 341.47506,274.16001 C 343.90271,275.42239 348.95220,275.42239 351.37985,274.16001 C 353.12775,273.18895 353.22486,271.82946 353.22486,245.31958 L 353.22486,217.45020 L 357.40042,221.62575 C 371.18944,235.60900 396.43695,235.12346 409.93467,220.75180 C 430.71531,198.51457 423.23817,157.92433 396.63116,148.11664 C 390.51350,145.88321 382.45372,145.00926 376.43315,145.98031 z M 394.39774,161.90567 C 403.04015,166.95517 407.60413,176.47155 407.60413,189.09531 C 407.50702,201.52485 401.97199,211.72096 392.94114,216.18783 C 388.76559,218.32416 386.53216,218.80969 380.51160,218.80969 C 371.77208,218.80969 367.01389,216.86757 361.77017,211.42965 C 355.65250,205.02066 353.71040,199.48563 353.71040,188.22134 C 353.71040,179.57893 354.00171,177.92813 356.33225,173.55837 C 359.53675,167.44070 364.10072,162.77963 369.24733,160.35197 C 375.36499,157.53591 388.18296,158.31275 394.39774,161.90567 z "/>
    <path id="path2166" style="fill:#000000;stroke:none" d="M 113.56768,147.14559 C 112.69373,148.01954 112.40240,158.40986 112.40240,187.83293 C 112.40240,232.01607 112.01398,229.97686 119.39403,229.97686 C 126.19143,229.97686 125.99722,230.94791 125.99722,187.63871 C 125.99722,153.84589 125.80301,148.79638 124.44353,147.53400 C 122.69562,145.68899 115.31558,145.39768 113.56768,147.14559 z "/>
    <path id="path2188" style="fill:#000000;fill-opacity:1.0000000;stroke:none;stroke-width:1.0000000pt;stroke-linecap:butt;stroke-linejoin:miter;stroke-opacity:1.0000000" transform="scale(0.800000,0.800000)" d="M 147.68750,100.31250 C 127.16280,100.31250 110.50000,116.87312 110.50000,137.28125 C 110.50000,157.68939 127.16279,174.25000 147.68750,174.25000 C 168.21220,174.25000 184.87500,157.68939 184.87500,137.28125 C 184.87500,116.87311 168.21219,100.31250 147.68750,100.31250 z M 148.43750,112.15625 C 162.70964,112.15625 174.28125,123.50214 174.28125,137.50000 C 174.28125,151.49786 162.70964,162.87500 148.43750,162.87500 C 134.16537,162.87500 122.56250,151.49786 122.56250,137.50000 C 122.56250,123.50213 134.16536,112.15625 148.43750,112.15625 z "/>
  </g>
</svg>